<?xml version="1.0" encoding="UTF-8"?>
<svg xmlns="http://www.w3.org/2000/svg" viewBox="0 0 720 270" width="720" height="270" role="img" aria-label="NFA ends 01">
  <rect width="100%" height="100%" fill="#fafbfc"/>
  <style>
    .t { font-family: 'Source Sans 3', Helvetica, Arial, sans-serif; fill: #1a2332; }
    .l { font-family: 'Source Sans 3', Helvetica, Arial, sans-serif; fill: #5a6570; font-size: 12px; }
    .nt { font-family: 'Source Sans 3', Helvetica, Arial, sans-serif; fill: #004586; font-weight: 700; font-size: 13px; }
    .cap { font-family: 'Source Sans 3', Helvetica, Arial, sans-serif; fill: #5a6570; font-size: 12px; }
    .e { stroke: #334155; stroke-width: 2; fill: none; marker-end: url(#ar); }
    .n { fill: white; stroke: #004586; stroke-width: 2.2; }
    .acc { fill: white; stroke: #004586; stroke-width: 2.2; }
  </style>
  <defs>
    <marker id="ar" markerWidth="8" markerHeight="8" refX="6" refY="3" orient="auto">
      <path d="M0,0 L6,3 L0,6 Z" fill="#334155"/>
    </marker>
  </defs>

  <text class="t" x="360" y="26" text-anchor="middle" font-size="15" font-weight="600">NFA: chuỗi kết thúc bằng 01</text>
  <line x1="40" y1="130" x2="100" y2="130" stroke="#334155" stroke-width="2" marker-end="url(#ar)"/>
  <path d="M140,110 Q200,50 260,110" class="e"/>
  <path d="M140,150 Q200,210 260,150" class="e"/>
  <line class="e" x1="160" y1="130" x2="280" y2="130"/>
  <line class="e" x1="320" y1="130" x2="440" y2="130"/>
  <path d="M120,100 Q100,50 140,80" class="e"/>
    <circle class="n" cx="120" cy="130" r="22"/>
  <text class="nt" x="120" y="135" text-anchor="middle">q₀</text>
    <circle class="n" cx="300" cy="130" r="22"/>
  <text class="nt" x="300" y="135" text-anchor="middle">q₁</text>
    <circle class="n" cx="480" cy="130" r="22"/>
  <circle cx="480" cy="130" r="17" fill="none" stroke="#004586" stroke-width="1.8"/>
  <text class="nt" x="480" y="135" text-anchor="middle">q₂</text>
  <text class="l" x="190" y="55">0,1</text>
  <text class="l" x="190" y="205">1</text>
  <text class="l" x="210" y="120">0</text>
  <text class="l" x="370" y="115">1</text>
  <text class="l" x="95" y="55">0</text>
  <text class="cap" x="360" y="250" text-anchor="middle">δ(q₀,0)={q₀,q₁} — đoán bắt đầu khớp 01 · chấp nhận nếu một nhánh tới q₂</text>

</svg>